<svg preserveAspectRatio="none" width="100%" height="100%" overflow="visible" style="display: block;" viewBox="0 0 650 650" fill="none" xmlns="http://www.w3.org/2000/svg">
<g id="&#60;Group&#62;">
<path id="&#60;Compound Path&#62;" fill-rule="evenodd" clip-rule="evenodd" d="M649.168 369.202H530.123L639.704 414.741L607.603 490.06L499.581 445.181L582.019 527.685L523.779 585.163L441.133 502.416L485.68 610.362L410.003 641.392L365.872 534.522V650H284.093V533.655L239.477 641.253L163.835 610.119L208.243 503.041L126.221 585.163L67.9813 527.685L151.008 444.521L150.141 444.903V420.711C150.141 385.516 178.117 356.29 213.235 355.804C222.421 355.666 231.192 357.47 239.131 360.803C239.593 361.011 240.055 361.219 240.517 361.427C250.813 366.044 262.461 358.408 262.461 347.092V294.925C262.461 259.243 291.373 230.504 327.115 230.851C362.371 231.198 390.485 260.562 390.485 295.862V309.19C390.485 321.061 403.069 328.488 413.539 322.969C413.631 322.923 413.723 322.877 413.816 322.831C422.413 318.318 432.189 315.715 442.589 315.611C478.261 315.125 507.451 344.871 507.451 380.622V404.953H530.816V380.795C530.816 332.306 491.885 292.252 443.491 292.217C433.056 292.217 423.072 294.022 413.816 297.389V294.925C413.816 248.692 378.075 210.893 332.731 207.7V162.023H357.899V150.36H332.731V126.862H321.083V150.36H295.915V162.023H321.083V207.631C275.323 210.407 239.131 248.414 239.131 294.925V336.055C231.435 333.741 223.38 332.526 214.968 332.41C166.504 331.959 126.811 372.396 126.811 420.954V433.588L34.5627 471.768L10.1573 414.22L118.976 369.202H0.831966L0 287.323H119.877L8.70126 241.125L39.3813 165.216L150.384 211.345L65.1386 125.995L122.581 67.683L208.867 154.074L162.136 40.8876L237.605 9.30216L284.093 121.968V0H365.872V122.871L412.915 9.44092L488.315 41.1652L441.757 153.45L527.419 67.683L584.827 125.995L498.957 211.969L610.861 165.667L641.437 241.611L530.989 287.323H650L649.168 369.202ZM323.891 349.279C305.725 350.98 291.477 366.321 291.477 384.96V460.904H323.891V349.279ZM326.941 306.517C339.317 306.517 349.336 296.486 349.336 284.095C349.336 271.739 339.317 261.708 326.941 261.708C314.6 261.708 304.581 271.739 304.581 284.095C304.581 296.486 314.6 306.517 326.941 306.517ZM363.099 384.96C363.099 366.078 348.504 350.598 329.992 349.21V460.904H363.099V384.96Z" fill="var(--fill-0, #FFC200)"/>
</g>
</svg>
