<svg preserveAspectRatio="none" width="100%" height="100%" overflow="visible" style="display: block;" viewBox="0 0 1080 214.249" fill="none" xmlns="http://www.w3.org/2000/svg">
<g id="&#60;Group&#62;">
<path id="&#60;Compound Path&#62;" fill-rule="evenodd" clip-rule="evenodd" d="M214.249 121.698H174.951L211.123 136.706L200.51 161.522L164.864 146.731L192.063 173.93L172.847 192.898L145.586 165.606L160.284 201.191L135.282 211.402L120.739 176.189V214.249H93.7569V175.91L79.0282 211.371L54.0573 201.098L68.7242 165.823L41.6491 192.898L22.4336 173.93L49.8181 146.515L49.5395 146.638V138.655C49.5395 127.083 58.7605 117.428 70.3641 117.274C73.4172 117.253 76.2639 117.81 78.9044 118.945C79.0488 119.006 79.2035 119.068 79.3685 119.13C82.7722 120.646 86.6091 118.14 86.6091 114.396V97.2226C86.6091 85.4643 96.1395 75.9648 107.96 76.0886C119.594 76.2124 128.846 85.8975 128.846 97.532V101.926C128.846 105.825 133.024 108.269 136.458 106.444C136.499 106.444 136.53 106.433 136.551 106.413C139.398 104.927 142.616 104.061 146.05 104.03C157.84 103.875 167.463 113.684 167.463 125.443V133.488H175.168V125.504C175.168 109.538 162.326 96.3254 146.36 96.3254C142.894 96.3254 139.625 96.8926 136.551 98.0272V97.2226C136.551 81.9678 124.762 69.5288 109.785 68.4458V53.4076H118.109V49.5705H109.785V41.804H105.948V49.5705H97.6558V53.4076H105.948V68.4458C90.8483 69.3431 78.9044 81.875 78.9044 97.2226V110.776C76.3671 110.012 73.7059 109.61 70.9211 109.569C54.9236 109.414 41.8348 122.75 41.8348 138.748V142.925L11.387 155.519L3.34179 136.52L39.2665 121.698H0.247502L0 94.7163H39.545L2.84669 79.4614L12.996 54.4595L49.6324 69.6526L21.5053 41.5254L40.4424 22.3099L68.9098 50.7773L53.5003 13.4602L78.4093 3.06341L93.7569 40.1949V0H120.739V40.5042L136.273 3.12526L161.151 13.553L145.772 50.5917L174.054 22.3099L192.991 41.5254L164.647 69.869L201.593 54.6142L211.68 79.6471L175.23 94.7163H214.496L214.249 121.698ZM106.908 115.108C100.905 115.696 96.2015 120.739 96.2015 126.897V151.899H106.908V115.108ZM107.929 101.029C112.013 101.029 115.324 97.7178 115.324 93.6333C115.324 89.5489 112.013 86.2689 107.929 86.2689C103.844 86.2689 100.533 89.5489 100.533 93.6333C100.533 97.7178 103.844 101.029 107.929 101.029ZM119.842 126.897C119.842 120.677 115.046 115.572 108.919 115.108V151.93H119.842V126.897Z" fill="var(--fill-0, #FFC200)"/>
<g id="&#60;Group&#62;_2">
<path id="&#60;Compound Path&#62;_2" d="M373.667 56.5626V157.467C369.768 158.107 366.189 158.427 362.93 158.427C359.897 158.427 356.225 158.107 351.914 157.467V108.609L352.687 93.787L348.758 105.298L331.399 148.958C328.139 149.371 324.88 149.577 321.621 149.577C318.485 149.577 315.174 149.371 311.688 148.958L293.401 105.143L289.78 95.5198L290.43 108.609V157.467C286.635 158.107 282.952 158.427 279.384 158.427C276.331 158.427 272.762 158.107 268.677 157.467V56.7482C271.813 55.9025 275.753 55.4797 280.498 55.4797C284.582 55.4797 288.832 55.7891 293.246 56.4079L320.538 118.851L322.425 123.894L324.003 118.851L349.222 56.4079C353.843 55.7891 357.999 55.4797 361.692 55.4797C365.673 55.4797 369.665 55.8406 373.667 56.5626Z" fill="var(--fill-0, white)"/>
<path id="&#60;Compound Path&#62;_3" d="M462.721 84.1644C459.461 108.238 453.056 129.124 443.505 146.824C433.933 164.544 420.844 179.345 404.238 191.227C400.876 190.072 397.957 187.967 395.482 184.914C393.027 181.861 391.273 178.55 390.221 174.982C399.669 167.514 406.497 160.892 410.705 155.116C403.568 143.977 397.864 132.889 393.594 121.853C389.345 110.816 385.693 98.202 382.64 84.0095C384.538 83.5969 387.168 83.205 390.531 82.8336C393.893 82.4623 396.998 82.2767 399.845 82.2767C403.083 82.2767 406.023 82.4315 408.663 82.7409C409.922 90.621 411.84 99.1612 414.419 108.362C416.997 117.562 419.916 125.999 423.175 133.673L424.754 137.912C425.063 136.241 425.476 134.828 425.991 133.673C431.561 120.739 435.666 103.761 438.307 82.7409C441.339 82.4315 444.433 82.2767 447.589 82.2767C452.85 82.2767 457.893 82.906 462.721 84.1644Z" fill="var(--fill-0, white)"/>
<path id="&#60;Compound Path&#62;_4" d="M494.251 156.447C487.732 153.868 482.194 150.186 477.635 145.4C473.055 140.635 469.559 134.942 467.145 128.32C464.731 121.698 463.525 114.55 463.525 106.876C463.525 99.2025 464.814 92.0237 467.393 85.34C469.951 78.677 473.622 72.9217 478.408 68.074C483.194 63.2469 488.877 59.5233 495.458 56.9035C502.018 54.263 509.083 52.9429 516.654 52.9429C523.275 52.9429 529.237 53.8402 534.539 55.6349C539.84 57.409 544.286 59.7709 547.875 62.7208C547.339 66.2895 545.895 69.8171 543.543 73.3034C541.171 76.769 538.355 79.3887 535.096 81.1628C529.526 77.2846 523.585 75.3455 517.273 75.3455C508.774 75.3455 501.945 78.1511 496.788 83.7621C491.631 89.3937 489.053 97.0984 489.053 106.876C489.053 116.324 491.6 123.916 496.695 129.65C501.791 135.385 508.443 138.252 516.654 138.252C520.119 138.252 523.564 137.778 526.988 136.829C530.392 135.88 533.724 133.982 536.983 131.136C540.655 133.24 543.522 135.787 545.585 138.778C547.627 141.79 549.02 145.555 549.763 150.073C541.346 156.901 529.99 160.315 515.694 160.315C507.917 160.315 500.77 159.025 494.251 156.447Z" fill="var(--fill-0, white)"/>
<path id="&#60;Compound Path&#62;_5" d="M608.647 81.5654C612.69 82.5556 616.341 84.2677 619.601 86.7019C622.86 89.1154 625.51 92.2614 627.553 96.1396C629.595 100.038 630.616 104.618 630.616 109.878V157.468C626.738 158.108 622.798 158.428 618.796 158.428C615.021 158.428 611.132 158.108 607.13 157.468V115.85C607.13 106.175 602.51 101.338 593.268 101.338C588.854 101.338 584.594 102.504 580.489 104.835V157.468C576.714 158.108 572.825 158.428 568.823 158.428C565.151 158.428 561.16 158.108 556.848 157.468V54.2118C560.623 53.5724 564.512 53.2526 568.514 53.2526C572.289 53.2526 576.28 53.5724 580.489 54.2118V83.2363C585.543 81.1322 590.906 80.0802 596.579 80.0802C600.581 80.0802 604.603 80.5753 608.647 81.5654Z" fill="var(--fill-0, white)"/>
<path id="&#60;Compound Path&#62;_6" d="M714.503 83.3902V151.495C710.727 153.599 705.55 155.57 698.969 157.406C692.409 159.242 685.189 160.16 677.309 160.16C672.668 160.16 668.14 159.685 663.725 158.736C659.311 157.787 655.453 156.137 652.152 153.785C648.831 151.413 646.201 148.277 644.262 144.379C642.323 140.5 641.353 135.622 641.353 129.743V83.3902C645.335 82.7507 649.275 82.4308 653.174 82.4308C657.176 82.4308 661.064 82.7507 664.839 83.3902V124.513C664.839 129.774 665.891 133.61 667.995 136.024C670.099 138.458 673.833 139.675 679.197 139.675C683.817 139.655 687.757 138.86 691.017 137.293V83.3902C694.998 82.7507 698.887 82.4308 702.682 82.4308C706.664 82.4308 710.604 82.7507 714.503 83.3902Z" fill="var(--fill-0, white)"/>
<path id="&#60;Compound Path&#62;_7" d="M778.028 82.4308C777.822 90.6204 775.615 97.3969 771.407 102.76C768.787 102.038 765.796 101.677 762.433 101.677C757.689 101.677 753.852 102.41 750.923 103.874V157.467C747.127 158.107 743.187 158.427 739.102 158.427C735.307 158.427 731.418 158.107 727.437 157.467V91.7446C729.644 89.7437 732.635 87.7737 736.41 85.8346C740.185 83.8749 744.259 82.4515 748.633 81.5645C752.985 80.6775 757.008 80.234 760.7 80.234C767.632 80.234 773.408 80.9662 778.028 82.4308Z" fill="var(--fill-0, white)"/>
<path id="&#60;Compound Path&#62;_8" d="M786.847 149.577C779.503 142.543 775.831 132.776 775.831 120.275C775.831 114.272 776.852 108.774 778.894 103.782C780.957 98.7899 783.794 94.5404 787.404 91.0336C791.034 87.5061 795.346 84.7934 800.338 82.8956C805.33 81.0184 810.662 80.0799 816.335 80.0799C821.596 80.0799 826.639 80.9153 831.466 82.5862C836.314 84.2778 839.945 86.227 842.358 88.4343C841.616 91.4667 840.12 94.5405 837.872 97.6554C835.603 100.75 833.055 103.194 830.229 104.989C826.33 101.503 821.915 99.7595 816.985 99.7595C811.519 99.7595 807.228 101.657 804.113 105.453C801.019 109.228 799.471 114.065 799.471 119.965C799.471 125.844 800.998 130.723 804.051 134.601C807.104 138.5 811.467 140.449 817.14 140.449C819.657 140.449 822.101 140.078 824.473 139.335C826.825 138.613 829.208 137.149 831.621 134.942C837.624 137.871 841.626 143.018 843.627 150.382C840.574 153.105 836.758 155.415 832.178 157.313C827.619 159.211 822.555 160.16 816.985 160.16C804.257 160.16 794.211 156.632 786.847 149.577Z" fill="var(--fill-0, white)"/>
<path id="&#60;Compound Path&#62;_9" d="M902.976 81.5654C907.019 82.5556 910.67 84.2677 913.93 86.7019C917.189 89.1154 919.84 92.2614 921.882 96.1396C923.945 100.038 924.976 104.618 924.976 109.878V157.468C921.078 158.108 917.137 158.428 913.156 158.428C909.36 158.428 905.462 158.108 901.46 157.468V115.85C901.46 106.175 896.839 101.338 887.597 101.338C883.183 101.338 878.923 102.504 874.818 104.835V157.468C871.043 158.108 867.154 158.428 863.152 158.428C859.48 158.428 855.489 158.108 851.177 157.468V54.2118C854.973 53.5724 858.862 53.2526 862.843 53.2526C866.639 53.2526 870.63 53.5724 874.818 54.2118V83.2363C879.872 81.1322 885.235 80.0802 890.908 80.0802C894.91 80.0802 898.933 80.5753 902.976 81.5654Z" fill="var(--fill-0, white)"/>
</g>
<g id="&#60;Group&#62;_3">
<path id="&#60;Compound Path&#62;_10" fill-rule="evenodd" clip-rule="evenodd" d="M964.274 110.157C966.852 110.9 969.08 112.024 970.958 113.53C972.835 115.057 974.289 117.047 975.32 119.502C976.352 121.936 976.868 124.773 976.868 128.012V153.075C974.083 154.416 970.772 155.509 966.935 156.355C963.098 157.201 959.344 157.624 955.672 157.624C949.029 157.624 943.996 156.293 940.572 153.632C937.147 150.992 935.435 147.351 935.435 142.709C935.435 141.038 935.765 139.326 936.425 137.573C937.065 135.84 938.158 134.283 939.705 132.901C941.252 131.498 943.284 130.363 945.801 129.497C948.318 128.63 951.319 128.197 954.805 128.197C959.178 128.197 962.954 128.775 966.13 129.93V127.331C966.13 124.546 965.171 122.38 963.253 120.833C961.355 119.286 958.632 118.512 955.084 118.512C953.207 118.512 951.092 118.842 948.741 119.502C946.389 120.142 944.243 121.173 942.304 122.597C940.963 121.936 939.85 120.977 938.962 119.719C938.096 118.46 937.539 117.058 937.292 115.51C938.901 113.963 941.417 112.499 944.842 111.117C948.245 109.735 951.917 109.044 955.857 109.044C958.89 109.044 961.695 109.415 964.274 110.157ZM949.174 147.32C950.927 148.578 953.413 149.207 956.631 149.207C959.849 149.207 963.016 148.723 966.13 147.753V137.882C963.222 136.645 959.736 136.026 955.672 136.026C952.887 136.026 950.68 136.541 949.05 137.573C947.4 138.604 946.574 140.151 946.574 142.214C946.574 144.36 947.441 146.062 949.174 147.32Z" fill="var(--fill-0, #FFC200)"/>
<path id="&#60;Compound Path&#62;_11" fill-rule="evenodd" clip-rule="evenodd" d="M1014.31 110.591C1017.34 111.622 1019.97 113.149 1022.2 115.17C1024.43 117.212 1026.15 119.76 1027.37 122.813C1028.58 125.887 1029.19 129.321 1029.19 133.117C1029.19 136.81 1028.55 140.203 1027.27 143.297C1025.97 146.392 1024.18 149.001 1021.89 151.126C1019.6 153.251 1016.99 154.86 1014.06 155.953C1011.13 157.067 1008.09 157.624 1004.93 157.624C1001.05 157.624 997.764 157.17 995.062 156.262V174.055C993.638 174.385 991.823 174.55 989.616 174.55C987.553 174.55 985.717 174.385 984.108 174.055V116.098C986.563 114.097 989.585 112.416 993.174 111.055C996.743 109.714 1000.53 109.044 1004.53 109.044C1008.02 109.044 1011.28 109.559 1014.31 110.591ZM1014.31 143.885C1016.89 141.224 1018.18 137.676 1018.18 133.241C1018.18 128.909 1016.89 125.474 1014.31 122.937C1011.73 120.379 1008.31 119.1 1004.04 119.1C1000.76 119.1 997.764 119.843 995.062 121.328V145.989C997.578 147.227 1000.61 147.846 1004.16 147.846C1008.35 147.846 1011.73 146.526 1014.31 143.885Z" fill="var(--fill-0, #FFC200)"/>
<path id="&#60;Compound Path&#62;_12" fill-rule="evenodd" clip-rule="evenodd" d="M1065.12 110.591C1068.15 111.622 1070.78 113.149 1073.01 115.17C1075.21 117.212 1076.94 119.76 1078.17 122.813C1079.39 125.887 1080 129.321 1080 133.117C1080 136.81 1079.36 140.203 1078.08 143.297C1076.78 146.392 1074.99 149.001 1072.7 151.126C1070.41 153.251 1067.8 154.86 1064.87 155.953C1061.94 157.067 1058.89 157.624 1055.71 157.624C1051.85 157.624 1048.56 157.17 1045.84 156.262V174.055C1044.44 174.385 1042.63 174.55 1040.42 174.55C1038.36 174.55 1036.53 174.385 1034.92 174.055V116.098C1037.37 114.097 1040.38 112.416 1043.95 111.055C1047.54 109.714 1051.34 109.044 1055.34 109.044C1058.82 109.044 1062.08 109.559 1065.12 110.591ZM1065.12 143.885C1067.69 141.224 1068.98 137.676 1068.98 133.241C1068.98 128.909 1067.69 125.474 1065.12 122.937C1062.54 120.379 1059.11 119.1 1054.84 119.1C1051.56 119.1 1048.56 119.843 1045.84 121.328V145.989C1048.36 147.227 1051.39 147.846 1054.94 147.846C1059.14 147.846 1062.54 146.526 1065.12 143.885Z" fill="var(--fill-0, #FFC200)"/>
</g>
</g>
</svg>
