<svg preserveAspectRatio="none" width="100%" height="100%" overflow="visible" style="display: block;" viewBox="0 0 1080 1080" fill="none" xmlns="http://www.w3.org/2000/svg">
<g id="Logo_white bg_type1 1" clip-path="url(#clip0_0_4)">
<path id="&#60;Compound Path&#62;" fill-rule="evenodd" clip-rule="evenodd" d="M6345.61 927.02H6332.91L6344.6 931.87L6341.18 939.9L6329.65 935.12L6338.44 943.91L6332.23 950.03L6323.42 941.22L6328.17 952.71L6320.1 956.02L6315.39 944.64V956.94H6306.67V944.54L6301.91 956L6293.84 952.69L6298.58 941.28L6289.83 950.03L6283.62 943.9L6292.48 935.05L6292.38 935.09V932.51C6292.38 928.76 6295.36 925.65 6299.11 925.6C6300.1 925.593 6301.02 925.77 6301.87 926.13C6301.92 926.15 6301.97 926.17 6302.02 926.19C6303.12 926.69 6304.36 925.88 6304.36 924.67V919.11C6304.36 915.31 6307.45 912.25 6311.26 912.28C6315.02 912.32 6318.02 915.45 6318.02 919.21V920.63C6318.02 921.89 6319.36 922.69 6320.48 922.1C6320.49 922.093 6320.5 922.087 6320.51 922.08C6321.42 921.6 6322.47 921.33 6323.57 921.31C6327.38 921.26 6330.49 924.43 6330.49 928.24V930.83H6332.98V928.26C6332.98 923.09 6328.83 918.82 6323.67 918.82C6322.55 918.827 6321.5 919.01 6320.51 919.37V919.11C6320.51 914.19 6316.69 910.16 6311.86 909.82V904.95H6314.54V903.71H6311.86V901.21H6310.62V903.71H6307.93V904.95H6310.62V909.81C6305.73 910.11 6301.87 914.16 6301.87 919.11V923.49C6301.05 923.243 6300.19 923.117 6299.3 923.11C6294.13 923.06 6289.89 927.36 6289.89 932.54V933.88L6280.05 937.95L6277.45 931.82L6289.06 927.02H6276.46L6276.37 918.3H6289.15L6277.3 913.38L6280.57 905.29L6292.41 910.21L6283.32 901.12L6289.44 894.91L6298.64 904.11L6293.66 892.05L6301.71 888.69L6306.67 900.69V887.7H6315.39V900.78L6320.41 888.7L6328.45 892.08L6323.48 904.04L6332.62 894.9L6338.75 901.12L6329.59 910.27L6341.52 905.34L6344.78 913.43L6333 918.3H6345.69L6345.61 927.02ZM6310.92 924.9C6308.98 925.08 6307.47 926.71 6307.47 928.7V936.79H6310.92V924.9ZM6311.25 920.35C6312.57 920.35 6313.64 919.28 6313.64 917.96C6313.64 916.64 6312.57 915.57 6311.25 915.57C6309.93 915.57 6308.86 916.64 6308.86 917.96C6308.86 919.28 6309.93 920.35 6311.25 920.35ZM6315.1 928.7C6315.1 926.69 6313.55 925.04 6311.57 924.89V936.79H6315.1V928.7Z" fill="var(--fill-0, #FFC200)"/>
<g id="Logo">
<path id="&#60;Compound Path&#62;_2" fill-rule="evenodd" clip-rule="evenodd" d="M213.636 519.32H174.451L210.52 534.284L199.968 559.06L164.393 544.312L191.514 571.433L172.353 590.316L145.17 563.133L159.826 598.585L134.927 608.798L120.394 573.685V611.636H93.4892V573.377L78.8024 608.736L53.9028 598.523L68.5278 563.318L41.5301 590.316L22.3695 571.402L49.7066 544.096L49.3981 544.219V536.259C49.3981 524.689 58.5927 515.093 70.1631 514.938C73.2074 514.918 76.046 515.463 78.679 516.574C78.8435 516.636 78.9978 516.697 79.1418 516.759C82.5358 518.302 86.3617 515.802 86.3617 512.069V494.914C86.3617 483.189 95.8958 473.748 107.651 473.84C119.253 473.964 128.509 483.621 128.509 495.223V499.604C128.509 503.491 132.644 505.96 136.099 504.139C136.12 504.119 136.151 504.098 136.192 504.078C139 502.597 142.239 501.764 145.633 501.702C157.389 501.548 166.985 511.328 166.985 523.084V531.075H174.667V523.146C174.667 507.194 161.863 494.019 145.942 494.019C142.486 494.04 139.236 494.605 136.192 495.716V494.914C136.192 479.733 124.405 467.299 109.503 466.25V451.224H117.772V447.398H109.503V439.684H105.677V447.398H97.3768V451.224H105.677V466.219C90.5888 467.145 78.679 479.641 78.679 494.914V508.428C76.1489 507.667 73.5057 507.276 70.7493 507.256C54.7976 507.101 41.7153 520.369 41.7153 536.351V540.486L11.3544 553.044L3.33234 534.13L39.1544 519.32H0.277679L0 492.415H39.432L2.86945 477.234L12.9589 452.273L49.4906 467.453L21.4439 439.407L40.3268 420.246L68.713 448.632L53.3474 411.422L78.1853 401.055L93.4892 438.08V398H120.394V438.358L135.883 401.085L160.69 411.514L145.356 448.416L173.557 420.215L192.47 439.407L164.208 467.639L201.017 452.427L211.076 477.389L174.729 492.415H213.883L213.636 519.32ZM106.602 512.779C100.617 513.334 95.9575 518.363 95.9575 524.503V549.465H106.602V512.779ZM107.62 498.74C111.693 498.74 114.995 495.439 114.995 491.366C114.995 487.293 111.693 483.991 107.62 483.991C103.548 483.991 100.246 487.293 100.246 491.366C100.246 495.439 103.548 498.74 107.62 498.74ZM119.499 524.503C119.499 518.302 114.717 513.211 108.608 512.748V549.465H119.499V524.503Z" fill="var(--fill-0, #FFC200)"/>
<g id="&#60;Group&#62;">
<path id="&#60;Compound Path&#62;_3" d="M375.684 454.401V555.018C371.797 555.635 368.238 555.944 365.009 555.944C361.964 555.944 358.293 555.635 353.994 555.018V506.268L354.765 491.489L350.846 502.966L333.568 546.533C330.318 546.944 327.068 547.15 323.818 547.15C320.671 547.15 317.369 546.944 313.914 546.533L295.679 502.812L292.038 493.216L292.686 506.268V555.018C288.901 555.635 285.229 555.944 281.671 555.944C278.626 555.944 275.068 555.635 270.995 555.018V454.556C274.142 453.712 278.071 453.291 282.781 453.291C286.875 453.291 291.122 453.61 295.524 454.247L322.707 516.481L324.589 521.541L326.163 516.481L351.309 454.247C355.917 453.61 360.062 453.291 363.744 453.291C367.714 453.291 371.694 453.661 375.684 454.401Z" fill="var(--fill-0, #0A0A0A)"/>
<path id="&#60;Compound Path&#62;_4" d="M464.515 481.925C461.265 505.909 454.868 526.736 445.323 544.406C435.779 562.054 422.728 576.803 406.169 588.651C402.816 587.499 399.916 585.401 397.468 582.357C395 579.333 393.241 576.031 392.192 572.452C401.613 565.027 408.421 558.424 412.618 552.644C405.5 541.536 399.813 530.48 395.555 519.475C391.318 508.47 387.677 495.892 384.633 481.74C386.525 481.329 389.148 480.938 392.5 480.568C395.853 480.197 398.949 480.012 401.788 480.012C405.038 480.012 407.969 480.177 410.581 480.506C411.836 488.363 413.749 496.879 416.32 506.053C418.891 515.207 421.802 523.61 425.052 531.262L426.626 535.519C426.934 533.833 427.356 532.413 427.89 531.262C433.444 518.385 437.527 501.466 440.14 480.506C443.184 480.177 446.28 480.012 449.427 480.012C454.652 480.012 459.681 480.65 464.515 481.925Z" fill="var(--fill-0, #0A0A0A)"/>
<path id="&#60;Compound Path&#62;_5" d="M495.955 554.002C489.455 551.43 483.922 547.759 479.356 542.986C474.789 538.214 471.303 532.527 468.896 525.924C466.489 519.321 465.286 512.194 465.286 504.542C465.286 496.89 466.572 489.742 469.143 483.098C471.714 476.433 475.386 470.694 480.158 465.881C484.909 461.068 490.566 457.345 497.128 454.712C503.669 452.099 510.714 450.793 518.263 450.793C524.866 450.793 530.811 451.678 536.097 453.447C541.404 455.236 545.837 457.602 549.395 460.543C548.861 464.102 547.421 467.609 545.076 471.065C542.71 474.52 539.902 477.143 536.652 478.933C531.099 475.045 525.175 473.101 518.88 473.101C510.406 473.101 503.597 475.909 498.455 481.524C493.312 487.119 490.741 494.792 490.741 504.542C490.741 513.983 493.292 521.553 498.393 527.251C503.474 532.969 510.097 535.828 518.263 535.828C521.719 535.828 525.154 535.355 528.569 534.409C531.963 533.463 535.285 531.581 538.535 528.763C542.217 530.861 545.076 533.401 547.112 536.384C549.149 539.366 550.537 543.11 551.277 547.615C542.885 554.423 531.572 557.827 517.338 557.827C509.562 557.827 502.435 556.552 495.955 554.002Z" fill="var(--fill-0, #0A0A0A)"/>
<path id="&#60;Compound Path&#62;_6" d="M609.993 479.333C614.025 480.32 617.666 482.017 620.916 484.424C624.166 486.83 626.809 489.977 628.845 493.865C630.902 497.732 631.931 502.288 631.931 507.534V555.019C628.043 555.636 624.114 555.944 620.144 555.944C616.359 555.944 612.482 555.636 608.512 555.019V513.519C608.512 503.872 603.894 499.049 594.658 499.049C590.256 499.049 586.009 500.201 581.915 502.504V555.019C578.151 555.636 574.274 555.944 570.283 555.944C566.622 555.944 562.642 555.636 558.343 555.019V452.057C562.128 451.419 566.005 451.101 569.975 451.101C573.76 451.101 577.74 451.419 581.915 452.057V480.968C586.955 478.87 592.303 477.821 597.96 477.821C601.95 477.821 605.962 478.325 609.993 479.333Z" fill="var(--fill-0, #0A0A0A)"/>
<path id="&#60;Compound Path&#62;_7" d="M715.547 481.124V549.035C711.783 551.133 706.619 553.097 700.058 554.928C693.517 556.759 686.317 557.674 678.46 557.674C673.852 557.674 669.347 557.211 664.945 556.285C660.543 555.339 656.687 553.683 653.375 551.318C650.084 548.952 647.461 545.836 645.507 541.969C643.573 538.081 642.607 533.206 642.607 527.344V481.124C646.597 480.507 650.526 480.198 654.393 480.198C658.384 480.198 662.261 480.507 666.025 481.124V522.16C666.025 527.406 667.074 531.232 669.172 533.638C671.27 536.045 674.994 537.248 680.342 537.248C684.949 537.248 688.878 536.467 692.128 534.903V481.124C696.119 480.507 699.996 480.198 703.76 480.198C707.751 480.198 711.68 480.507 715.547 481.124Z" fill="var(--fill-0, #0A0A0A)"/>
<path id="&#60;Compound Path&#62;_8" d="M778.891 480.198C778.685 488.364 776.484 495.121 772.288 500.469C769.676 499.728 766.693 499.358 763.341 499.358C758.63 499.358 754.804 500.088 751.863 501.549V555.02C748.098 555.637 744.17 555.945 740.076 555.945C736.291 555.945 732.414 555.637 728.444 555.02V489.454C730.645 487.459 733.628 485.494 737.392 483.561C741.177 481.627 745.239 480.218 749.579 479.334C753.94 478.428 757.951 477.976 761.613 477.976C768.524 477.976 774.284 478.717 778.891 480.198Z" fill="var(--fill-0, #0A0A0A)"/>
<path id="&#60;Compound Path&#62;_9" d="M787.715 547.151C780.372 540.137 776.7 530.387 776.7 517.901C776.7 511.936 777.718 506.464 779.755 501.487C781.812 496.509 784.65 492.261 788.27 488.744C791.87 485.247 796.159 482.552 801.137 480.66C806.115 478.767 811.432 477.821 817.089 477.821C822.334 477.821 827.373 478.665 832.207 480.351C837.021 482.017 840.63 483.951 843.037 486.152C842.297 489.196 840.805 492.261 838.563 495.347C836.301 498.432 833.76 500.869 830.942 502.659C827.054 499.203 822.653 497.476 817.737 497.476C812.286 497.476 808.017 499.358 804.932 503.122C801.826 506.907 800.273 511.73 800.273 517.593C800.273 523.455 801.795 528.33 804.839 532.218C807.883 536.085 812.234 538.018 817.891 538.018C820.4 538.018 822.838 537.658 825.203 536.938C827.548 536.198 829.934 534.727 832.362 532.526C838.327 535.468 842.307 540.6 844.302 547.923C841.258 550.658 837.452 552.972 832.886 554.865C828.34 556.737 823.29 557.673 817.737 557.673C805.045 557.673 795.038 554.165 787.715 547.151Z" fill="var(--fill-0, #0A0A0A)"/>
<path id="&#60;Compound Path&#62;_10" d="M903.481 479.333C907.513 480.32 911.154 482.017 914.404 484.424C917.654 486.83 920.297 489.977 922.333 493.865C924.39 497.732 925.419 502.288 925.419 507.534V555.019C921.531 555.636 917.602 555.944 913.632 555.944C909.848 555.944 905.97 555.636 902 555.019V513.519C902 503.872 897.382 499.049 888.147 499.049C883.745 499.049 879.507 500.201 875.435 502.504V555.019C871.65 555.636 867.772 555.944 863.802 555.944C860.121 555.944 856.13 555.636 851.831 555.019V452.057C855.616 451.419 859.493 451.101 863.463 451.101C867.248 451.101 871.238 451.419 875.435 452.057V480.968C880.454 478.87 885.791 477.821 891.448 477.821C895.439 477.821 899.45 478.325 903.481 479.333Z" fill="var(--fill-0, #0A0A0A)"/>
</g>
<g id="&#60;Group&#62;_2">
<path id="&#60;Compound Path&#62;_11" fill-rule="evenodd" clip-rule="evenodd" d="M964.604 507.811C967.175 508.551 969.397 509.682 971.269 511.205C973.141 512.706 974.591 514.681 975.619 517.129C976.648 519.576 977.162 522.405 977.162 525.614V550.606C974.385 551.963 971.084 553.054 967.258 553.876C963.432 554.72 959.688 555.141 956.027 555.141C949.403 555.141 944.384 553.825 940.97 551.192C937.555 548.559 935.848 544.929 935.848 540.3C935.848 538.614 936.177 536.906 936.835 535.178C937.473 533.43 938.563 531.867 940.106 530.489C941.648 529.111 943.675 527.989 946.184 527.125C948.694 526.241 951.687 525.799 955.163 525.799C959.544 525.799 963.308 526.385 966.455 527.557V524.935C966.455 522.179 965.499 520.029 963.586 518.486C961.694 516.944 958.979 516.172 955.441 516.172C953.589 516.172 951.481 516.491 949.115 517.129C946.77 517.766 944.631 518.795 942.698 520.214C941.361 519.576 940.26 518.63 939.396 517.376C938.512 516.121 937.946 514.722 937.699 513.179C939.304 511.637 941.813 510.176 945.228 508.798C948.642 507.399 952.304 506.7 956.212 506.7C959.236 506.7 962.033 507.07 964.604 507.811ZM949.578 544.867C951.306 546.122 953.774 546.749 956.983 546.749C960.213 546.749 963.37 546.266 966.455 545.299V535.456C963.555 534.243 960.079 533.636 956.027 533.636C953.27 533.636 951.069 534.15 949.424 535.178C947.778 536.207 946.956 537.75 946.956 539.807C946.956 541.925 947.83 543.612 949.578 544.867Z" fill="var(--fill-0, #FFC200)"/>
<path id="&#60;Compound Path&#62;_12" fill-rule="evenodd" clip-rule="evenodd" d="M1014.5 508.242C1017.52 509.271 1020.14 510.803 1022.36 512.84C1024.59 514.855 1026.3 517.396 1027.52 520.461C1028.75 523.505 1029.37 526.93 1029.37 530.735C1029.37 534.397 1028.72 537.77 1027.42 540.856C1026.15 543.941 1024.37 546.553 1022.09 548.693C1019.8 550.811 1017.19 552.416 1014.25 553.506C1011.33 554.596 1008.29 555.141 1005.15 555.141C1001.28 555.141 997.999 554.689 995.304 553.784V571.556C993.885 571.864 992.085 572.019 989.905 572.019C987.848 572.019 986.007 571.864 984.382 571.556V513.765C986.83 511.77 989.843 510.094 993.422 508.736C996.981 507.379 1000.76 506.7 1004.75 506.7C1008.22 506.7 1011.47 507.214 1014.5 508.242ZM1014.5 541.442C1017.07 538.809 1018.35 535.271 1018.35 530.828C1018.35 526.529 1017.07 523.104 1014.5 520.553C1011.92 518.023 1008.52 516.758 1004.28 516.758C1000.99 516.758 997.999 517.489 995.304 518.949V543.571C997.814 544.784 1000.84 545.391 1004.38 545.391C1008.55 545.391 1011.92 544.075 1014.5 541.442Z" fill="var(--fill-0, #FFC200)"/>
<path id="&#60;Compound Path&#62;_13" fill-rule="evenodd" clip-rule="evenodd" d="M1065.16 508.242C1068.18 509.271 1070.81 510.803 1073.03 512.84C1075.25 514.855 1076.97 517.396 1078.18 520.461C1079.39 523.505 1080 526.93 1080 530.735C1080 534.397 1079.36 537.77 1078.09 540.856C1076.79 543.941 1075 546.553 1072.72 548.693C1070.44 550.811 1067.83 552.416 1064.91 553.506C1061.99 554.596 1058.96 555.141 1055.81 555.141C1051.94 555.141 1048.66 554.689 1045.97 553.784V571.556C1044.55 571.864 1042.74 572.019 1040.54 572.019C1038.48 572.019 1036.65 571.864 1035.05 571.556V513.765C1037.49 511.77 1040.51 510.094 1044.09 508.736C1047.64 507.379 1051.42 506.7 1055.41 506.7C1058.89 506.7 1062.14 507.214 1065.16 508.242ZM1065.16 541.442C1067.73 538.809 1069.02 535.271 1069.02 530.828C1069.02 526.529 1067.73 523.104 1065.16 520.553C1062.59 518.023 1059.17 516.758 1054.92 516.758C1051.64 516.758 1048.66 517.489 1045.97 518.949V543.571C1048.48 544.784 1051.5 545.391 1055.04 545.391C1059.21 545.391 1062.59 544.075 1065.16 541.442Z" fill="var(--fill-0, #FFC200)"/>
</g>
</g>
</g>
<defs>
<clipPath id="clip0_0_4">
<rect width="1080" height="1080" fill="white"/>
</clipPath>
</defs>
</svg>
